<svg width="24" height="24" viewBox="0 0 24 24" fill="none" xmlns="http://www.w3.org/2000/svg">
<g clip-path="url(#clip0_14319_958)">
<path d="M1.39652 23.1129C1.82215 23.5742 3.57527 22.7698 4.95902 22.1248C5.9959 21.6429 10.1453 19.9404 12.2078 19.0573C12.7646 18.8192 13.5746 18.5079 14.1578 17.741C14.6753 17.0585 16.0478 14.1598 13.284 11.2235C10.479 8.24228 7.58965 9.06541 6.50965 9.83041C5.87402 10.2804 5.35652 11.2948 5.12402 11.8104C4.14152 13.9892 2.7409 17.981 2.1709 19.5504C1.75277 20.7073 0.974648 22.6554 1.39652 23.1129Z" fill="#FFC107"/>
<path d="M4.84648 12.4668C4.87273 12.793 4.93836 13.3237 5.16336 14.3455C5.31711 15.0468 5.56836 15.7818 5.77273 16.2674C6.38586 17.728 7.24648 18.3168 8.11836 18.7893C9.59961 19.5918 10.6065 19.7418 10.6065 19.7418L9.39898 20.2349C9.39898 20.2349 8.66773 20.083 7.67023 19.5918C6.71961 19.123 5.72961 18.3299 5.00586 16.7774C4.69273 16.1043 4.51086 15.4518 4.40586 14.9343C4.27648 14.293 4.25586 13.9293 4.25586 13.9293L4.84648 12.4668Z" fill="#FF8F00"/>
<path d="M3.36369 16.2695C3.36369 16.2695 3.51369 17.4864 4.51869 19.022C5.69619 20.8183 7.34057 21.1127 7.34057 21.1127L6.24744 21.5627C6.24744 21.5627 5.02682 21.1895 3.86619 19.6052C3.14244 18.617 2.93994 17.4358 2.93994 17.4358L3.36369 16.2695Z" fill="#FF8F00"/>
<path d="M2.32279 19.1533C2.32279 19.1533 2.59654 20.2033 3.19654 20.9871C3.91092 21.9227 4.82029 22.1946 4.82029 22.1946L3.98217 22.5658C3.98217 22.5658 3.34654 22.4327 2.65092 21.5514C2.12217 20.8821 1.97217 20.1133 1.97217 20.1133L2.32279 19.1533Z" fill="#FF8F00"/>
<path opacity="0.44" d="M1.86725 21.8196C1.82975 21.7352 1.82975 21.6396 1.86913 21.5571L6.64475 11.6533L7.43038 14.6064L2.40538 21.8646C2.27038 22.0671 1.96663 22.0408 1.86725 21.8196Z" fill="#FFFDE7"/>
<path d="M7.80917 15.5982C10.0404 18.2082 12.581 17.882 13.4267 17.222C14.2742 16.5601 14.9435 14.2857 12.7217 11.7188C10.3929 9.03008 7.75667 9.79696 7.14729 10.3782C6.53792 10.9595 5.76167 13.2038 7.80917 15.5982Z" fill="url(#paint0_linear_14319_958)"/>
<path d="M15.4725 16.6726C14.6588 15.9901 14.2256 16.112 13.6444 16.3538C12.8944 16.6651 11.715 16.8957 10.1138 16.3538L10.5956 15.1932C11.5463 15.5138 12.2344 15.3582 12.8288 15.0076C13.5938 14.5576 14.64 13.9407 16.2675 15.3076C16.9463 15.8776 17.6419 16.2563 18.1519 16.0838C18.5231 15.9601 18.72 15.407 18.8194 14.9663C18.8288 14.927 18.8438 14.8145 18.855 14.7151C18.945 14.027 19.095 12.542 20.2013 11.7826C21.3844 10.9707 22.6275 10.9707 22.6275 10.9707L22.8525 13.2057C22.2806 13.1213 21.8831 13.2376 21.5475 13.4232C20.2838 14.1263 21.3844 16.8263 19.4175 17.7338C17.5256 18.6132 15.9788 17.0963 15.4725 16.6726Z" fill="#03A9F4"/>
<path d="M8.51249 13.8225L7.69874 13.0931C9.19311 11.4244 8.79936 10.1981 8.51249 9.30562C8.45436 9.12563 8.39999 8.955 8.36436 8.79187C8.23686 8.21438 8.21061 7.71187 8.24999 7.27313C7.67624 6.55875 7.42311 5.81063 7.40624 5.76C7.05749 4.70437 7.31999 3.675 7.92186 2.70937C9.13874 0.75 11.3419 0.75 11.3419 0.75L12.0769 2.71687C11.5181 2.69437 9.68624 2.7225 9.12374 3.60938C8.41311 4.72688 8.87999 5.41687 8.91374 5.49563C9.05061 5.3175 9.18936 5.175 9.31311 5.06437C10.2112 4.2675 10.9912 4.15312 11.4881 4.19812C12.0469 4.24875 12.5531 4.53 12.915 4.99125C13.3106 5.4975 13.4737 6.15562 13.3481 6.75375C13.2262 7.33687 12.8381 7.83 12.255 8.14313C11.2369 8.69063 10.3894 8.61562 9.82124 8.42625C9.82499 8.43937 9.82686 8.45437 9.83061 8.4675C9.85124 8.56125 9.89249 8.6925 9.94124 8.84437C10.2731 9.87187 10.89 11.5031 8.51249 13.8225ZM9.89061 6.78562C9.99936 6.86437 10.1137 6.93 10.2319 6.97687C10.6256 7.13437 11.055 7.08187 11.5425 6.81938C11.8294 6.66562 11.8631 6.50063 11.8744 6.44625C11.9081 6.28313 11.8519 6.075 11.73 5.91937C11.6231 5.7825 11.4994 5.71125 11.3512 5.69625C11.07 5.67188 10.6894 5.85 10.3087 6.18937C10.1269 6.3525 9.98811 6.55312 9.89061 6.78562Z" fill="#F44336"/>
<path d="M11.7694 14.128L10.605 14.0961C10.605 14.0961 11.1581 10.9724 12.9487 10.4474C13.2844 10.3499 13.6519 10.2505 14.0212 10.1961C14.2406 10.1624 14.5875 10.1118 14.7581 10.048C14.7975 9.75363 14.6737 9.37863 14.535 8.95301C14.4262 8.62301 14.3137 8.28363 14.2537 7.91238C14.1375 7.18863 14.3306 6.54926 14.7975 6.10863C15.3675 5.57426 16.2881 5.40363 17.3269 5.63988C17.9194 5.77488 18.3562 6.06551 18.7406 6.32051C19.29 6.68613 19.6106 6.87176 20.2819 6.41988C21.0937 5.87238 20.0325 3.72926 19.4681 2.49176L21.5737 1.61426C21.8569 2.23301 23.2237 5.41676 22.3219 7.23363C22.0181 7.84488 21.495 8.24988 20.8087 8.40176C19.3162 8.73551 18.4425 8.15426 17.805 7.73051C17.5031 7.52988 17.2387 7.37238 16.9519 7.28988C14.9587 6.72176 17.7412 9.65426 16.4381 10.9724C15.6562 11.7618 13.7456 11.9699 13.6219 11.9999C12.3919 12.2961 11.7694 14.128 11.7694 14.128Z" fill="#F48FB1"/>
<path d="M8.24791 7.27295C8.21229 7.68545 8.19541 7.93107 8.30229 8.46732C8.81791 8.84607 9.94104 8.84607 9.94104 8.84607C9.89229 8.6942 9.84916 8.56295 9.83041 8.4692C9.82666 8.45607 9.82479 8.44107 9.82104 8.42795C8.67916 7.85795 8.24791 7.27295 8.24791 7.27295Z" fill="#C92B27"/>
<path d="M5.91189 9.12004L3.97314 8.16941L4.93877 6.77441L6.45939 7.78129L5.91189 9.12004Z" fill="#FFC107"/>
<path d="M3.0542 6.48748C2.0642 6.35436 1.05545 5.51436 0.944824 5.41873L1.91795 4.27686C2.21232 4.52623 2.8367 4.94436 3.25482 5.00061L3.0542 6.48748Z" fill="#FB8C00"/>
<path d="M4.80146 3.9883L3.37646 3.52143C3.53959 3.02268 3.58271 2.48455 3.49834 1.96518L4.97959 1.72705C5.10146 2.4808 5.03959 3.26268 4.80146 3.9883Z" fill="#03A9F4"/>
<path d="M13.7012 2.87336L15.1665 2.55273L15.5897 4.48698L14.1244 4.80761L13.7012 2.87336Z" fill="#FB8C00"/>
<path d="M17.3359 3.33184L16.3047 2.24246C16.8447 1.73059 16.9684 1.06121 16.9684 1.05371L18.4497 1.29559C18.4309 1.41371 18.2416 2.47496 17.3359 3.33184Z" fill="#FFC107"/>
<path d="M17.9092 9.10902L19.2192 8.69971L19.6668 10.1315L18.3567 10.5408L17.9092 9.10902Z" fill="#FB8C00"/>
<path d="M18.2906 21.1929L16.8 21.0166C16.8637 20.486 16.4681 19.8354 16.3594 19.691L17.5594 18.791C17.6494 18.9091 18.4313 19.991 18.2906 21.1929Z" fill="#F44336"/>
<path d="M22.5691 19.2918C22.0085 19.2074 21.4347 19.1737 20.8685 19.1943L20.8179 17.6943C21.476 17.6718 22.1416 17.7093 22.7922 17.8087L22.5691 19.2918Z" fill="#FB8C00"/>
<path d="M20.5522 21.3565L21.606 20.2891L23.0565 21.721L22.0026 22.7884L20.5522 21.3565Z" fill="#F48FB1"/>
<path d="M17.456 11.8745L18.5397 13.1137L17.3005 14.1974L16.2168 12.9583L17.456 11.8745Z" fill="#F44336"/>
</g>
<defs>
<linearGradient id="paint0_linear_14319_958" x1="13.9468" y1="11.5949" x2="8.36548" y2="14.9436" gradientUnits="userSpaceOnUse">
<stop offset="0.024" stop-color="#8F4700"/>
<stop offset="1" stop-color="#703E2D"/>
</linearGradient>
<clipPath id="clip0_14319_958">
<rect width="24" height="24" fill="white"/>
</clipPath>
</defs>
</svg>
