<svg width="25" height="24" viewBox="0 0 25 24" fill="none" xmlns="http://www.w3.org/2000/svg">
<g clip-path="url(#clip0_14422_533)">
<path d="M12.5 24C19.1274 24 24.5 18.6274 24.5 12C24.5 5.37258 19.1274 0 12.5 0C5.87258 0 0.5 5.37258 0.5 12C0.5 18.6274 5.87258 24 12.5 24Z" fill="#F0F0F0"/>
<path d="M11.9779 12.0001H24.4996C24.4996 10.917 24.3552 9.86774 24.0862 8.86963H11.9779V12.0001Z" fill="#D80027"/>
<path d="M11.9779 5.73861H22.7383C22.0038 4.53992 21.0645 3.4804 19.9694 2.60815H11.9779V5.73861Z" fill="#D80027"/>
<path d="M12.4997 24C15.3239 24 17.9197 23.0239 19.9695 21.3914H5.02991C7.07975 23.0239 9.67555 24 12.4997 24Z" fill="#D80027"/>
<path d="M2.26104 18.2601H22.7385C23.3282 17.2978 23.7856 16.2459 24.0864 15.1296H0.913147C1.21394 16.2459 1.6713 17.2978 2.26104 18.2601Z" fill="#D80027"/>
<path d="M6.05863 1.87397H7.15217L6.13498 2.61295L6.52353 3.80869L5.50639 3.0697L4.48925 3.80869L4.82487 2.7757C3.92928 3.52172 3.14431 4.39575 2.49744 5.36963H2.84783L2.20034 5.84002C2.09947 6.0083 2.00272 6.17925 1.91 6.35273L2.21919 7.30434L1.64234 6.88523C1.49895 7.18903 1.3678 7.49967 1.24991 7.81678L1.59055 8.86528H2.84783L1.83064 9.60427L2.21919 10.8L1.20205 10.061L0.592766 10.5037C0.531781 10.9939 0.5 11.4932 0.5 12H12.5C12.5 5.37262 12.5 4.59131 12.5 0C10.1294 0 7.91961 0.687656 6.05863 1.87397ZM6.52353 10.8L5.50639 10.061L4.48925 10.8L4.8778 9.60427L3.86061 8.86528H5.11789L5.50639 7.66955L5.89489 8.86528H7.15217L6.13498 9.60427L6.52353 10.8ZM6.13498 6.10861L6.52353 7.30434L5.50639 6.56536L4.48925 7.30434L4.8778 6.10861L3.86061 5.36963H5.11789L5.50639 4.17389L5.89489 5.36963H7.15217L6.13498 6.10861ZM10.8279 10.8L9.81073 10.061L8.79359 10.8L9.18214 9.60427L8.16495 8.86528H9.42223L9.81073 7.66955L10.1992 8.86528H11.4565L10.4393 9.60427L10.8279 10.8ZM10.4393 6.10861L10.8279 7.30434L9.81073 6.56536L8.79359 7.30434L9.18214 6.10861L8.16495 5.36963H9.42223L9.81073 4.17389L10.1992 5.36963H11.4565L10.4393 6.10861ZM10.4393 2.61295L10.8279 3.80869L9.81073 3.0697L8.79359 3.80869L9.18214 2.61295L8.16495 1.87397H9.42223L9.81073 0.678234L10.1992 1.87397H11.4565L10.4393 2.61295Z" fill="#0052B4"/>
</g>
<defs>
<clipPath id="clip0_14422_533">
<rect width="24" height="24" fill="white" transform="translate(0.5)"/>
</clipPath>
</defs>
</svg>
