<svg width="68" height="68" viewBox="0 0 68 68" fill="none" xmlns="http://www.w3.org/2000/svg">
<rect width="68" height="68" rx="8" fill="#EBF1FF"/>
<path d="M30.0006 46H38.0006M42.0006 29.4667C42.0006 27.4864 41.1578 25.5872 39.6574 24.1869C38.1571 22.7867 36.1223 22 34.0006 22C31.8788 22 29.844 22.7867 28.3437 24.1869C26.8434 25.5872 26.0006 27.4864 26.0006 29.4667C26.0006 33.0483 25.099 35.578 24.0372 37.3155C23.0088 38.9981 22.4946 39.8396 22.5137 40.0581C22.5352 40.3036 22.5836 40.39 22.7819 40.5364C22.9585 40.6667 23.7974 40.6667 25.4753 40.6667H42.5259C44.2038 40.6667 45.0427 40.6667 45.2192 40.5364C45.4175 40.39 45.466 40.3036 45.4875 40.0581C45.5066 39.8396 44.9923 38.9981 43.964 37.3155C42.9022 35.578 42.0006 33.0483 42.0006 29.4667Z" stroke="#0952FB" stroke-width="2" stroke-linecap="round" stroke-linejoin="round"/>
</svg>
