<svg width="68" height="68" viewBox="0 0 68 68" fill="none" xmlns="http://www.w3.org/2000/svg">
<rect width="68" height="68" rx="8" fill="#EBF1FF"/>
<path fill-rule="evenodd" clip-rule="evenodd" d="M19.3335 22.0002C19.3335 21.2929 19.6144 20.6146 20.1145 20.1145C20.6146 19.6144 21.2929 19.3335 22.0002 19.3335H30.6668C31.3741 19.3335 32.0524 19.6144 32.5524 20.1145C33.0525 20.6146 33.3335 21.2929 33.3335 22.0002V30.6668C33.3335 31.3741 33.0525 32.0524 32.5524 32.5524C32.0524 33.0525 31.3741 33.3335 30.6668 33.3335H27.3335V38.7508C27.3335 39.8068 28.1922 40.6668 29.2508 40.6668H34.6668V37.3335C34.6668 36.6263 34.9478 35.948 35.4479 35.4479C35.948 34.9478 36.6263 34.6668 37.3335 34.6668H46.0002C46.7074 34.6668 47.3857 34.9478 47.8858 35.4479C48.3859 35.948 48.6668 36.6263 48.6668 37.3335V46.0002C48.6668 46.7074 48.3859 47.3857 47.8858 47.8858C47.3857 48.3859 46.7074 48.6668 46.0002 48.6668H37.3335C36.6263 48.6668 35.948 48.3859 35.4479 47.8858C34.9478 47.3857 34.6668 46.7074 34.6668 46.0002V42.6668H29.2495C28.2108 42.6665 27.2147 42.2536 26.4804 41.519C25.746 40.7844 25.3335 39.7882 25.3335 38.7495V33.3335H22.0002C21.2929 33.3335 20.6146 33.0525 20.1145 32.5524C19.6144 32.0524 19.3335 31.3741 19.3335 30.6668V22.0002ZM22.0002 21.3335C21.8234 21.3335 21.6538 21.4037 21.5288 21.5288C21.4037 21.6538 21.3335 21.8234 21.3335 22.0002V30.6668C21.3335 30.8436 21.4037 31.0132 21.5288 31.1382C21.6538 31.2633 21.8234 31.3335 22.0002 31.3335H30.6668C30.8436 31.3335 31.0132 31.2633 31.1382 31.1382C31.2633 31.0132 31.3335 30.8436 31.3335 30.6668V22.0002C31.3335 21.8234 31.2633 21.6538 31.1382 21.5288C31.0132 21.4037 30.8436 21.3335 30.6668 21.3335H22.0002ZM37.3335 36.6668C37.1567 36.6668 36.9871 36.7371 36.8621 36.8621C36.7371 36.9871 36.6668 37.1567 36.6668 37.3335V46.0002C36.6668 46.177 36.7371 46.3465 36.8621 46.4716C36.9871 46.5966 37.1567 46.6668 37.3335 46.6668H46.0002C46.177 46.6668 46.3465 46.5966 46.4716 46.4716C46.5966 46.3465 46.6668 46.177 46.6668 46.0002V37.3335C46.6668 37.1567 46.5966 36.9871 46.4716 36.8621C46.3465 36.7371 46.177 36.6668 46.0002 36.6668H37.3335Z" fill="#487FFC"/>
</svg>
