<svg width="24" height="24" viewBox="0 0 24 24" fill="none" xmlns="http://www.w3.org/2000/svg">
<path d="M3.00293 9.11011V14.8801C3.00293 17.0001 3.00293 17.0001 5.00293 18.3501L10.5029 21.5301C11.3329 22.0101 12.6829 22.0101 13.5029 21.5301L19.0029 18.3501C21.0029 17.0001 21.0029 17.0001 21.0029 14.8901V9.11011C21.0029 7.00011 21.0029 7.00011 19.0029 5.65011L13.5029 2.47011C12.6829 1.99011 11.3329 1.99011 10.5029 2.47011L5.00293 5.65011C3.00293 7.00011 3.00293 7.00011 3.00293 9.11011Z" stroke="#667085" stroke-width="1.5" stroke-linecap="round" stroke-linejoin="round"/>
<path d="M12.0029 15C13.6598 15 15.0029 13.6569 15.0029 12C15.0029 10.3431 13.6598 9 12.0029 9C10.346 9 9.00293 10.3431 9.00293 12C9.00293 13.6569 10.346 15 12.0029 15Z" stroke="#667085" stroke-width="1.5" stroke-linecap="round" stroke-linejoin="round"/>
</svg>
