<svg width="42" height="43" viewBox="0 0 42 43" fill="none" xmlns="http://www.w3.org/2000/svg">
<rect x="4.25" y="5" width="33.5001" height="33.5001" rx="16.75" stroke="#D0D5DD" stroke-opacity="0.2" stroke-width="1.5"/>
<path d="M21 37.7501C29.8365 37.7501 37.0001 30.5865 37.0001 21.75C37.0001 12.9135 29.8365 5.75 21 5.75C12.1635 5.75 5 12.9135 5 21.75C5 30.5865 12.1635 37.7501 21 37.7501Z" fill="white"/>
<path d="M21 40.2501C31.2173 40.2501 39.5001 31.9673 39.5001 21.75C39.5001 11.5327 31.2172 3.25 21 3.25C10.7827 3.25 2.5 11.5327 2.5 21.75C2.5 31.9672 10.7827 40.2501 21 40.2501Z" stroke="#D0D5DD" stroke-opacity="0.2" stroke-width="5"/>
<circle cx="21" cy="22.25" r="7" fill="#007AFF"/>
</svg>
