<svg width="24" height="25" viewBox="0 0 24 25" fill="none" xmlns="http://www.w3.org/2000/svg">
<rect y="0.5" width="24" height="24" rx="4" fill="#F2F4F7"/>
<path d="M9.60005 10.0998H14.4M9.60005 10.0998V14.8998M9.60005 10.0998V7.6998C9.60005 6.37432 8.52553 5.2998 7.20005 5.2998C5.87457 5.2998 4.80005 6.37432 4.80005 7.6998C4.80005 9.02528 5.87457 10.0998 7.20005 10.0998H9.60005ZM14.4 10.0998V14.8998M14.4 10.0998H16.8C18.1256 10.0998 19.2 9.02528 19.2 7.6998C19.2 6.37432 18.1256 5.2998 16.8 5.2998C15.4745 5.2998 14.4 6.37432 14.4 7.6998V10.0998ZM9.60005 14.8998H14.4M9.60005 14.8998H7.20005C5.87457 14.8998 4.80005 15.9743 4.80005 17.2998C4.80005 18.6253 5.87457 19.6998 7.20005 19.6998C8.52553 19.6998 9.60005 18.6253 9.60005 17.2998V14.8998ZM14.4 14.8998V17.2998C14.4 18.6253 15.4745 19.6998 16.8 19.6998C18.1256 19.6998 19.2 18.6253 19.2 17.2998C19.2 15.9743 18.1256 14.8998 16.8 14.8998H14.4Z" stroke="#4B5563" stroke-width="1.5"/>
</svg>
