<svg width="42" height="43" viewBox="0 0 42 43" fill="none" xmlns="http://www.w3.org/2000/svg">
<rect x="4.25" y="5" width="33.5001" height="33.5001" rx="16.75" stroke="#316FFC" stroke-opacity="0.2" stroke-width="1.5"/>
<path d="M21 37.7501C29.8365 37.7501 37.0001 30.5865 37.0001 21.75C37.0001 12.9135 29.8365 5.75 21 5.75C12.1635 5.75 5 12.9135 5 21.75C5 30.5865 12.1635 37.7501 21 37.7501Z" fill="#007AFF"/>
<path d="M21 40.2501C31.2173 40.2501 39.5001 31.9673 39.5001 21.75C39.5001 11.5327 31.2172 3.25 21 3.25C10.7827 3.25 2.5 11.5327 2.5 21.75C2.5 31.9672 10.7827 40.2501 21 40.2501Z" stroke="#316FFC" stroke-opacity="0.2" stroke-width="5"/>
<path d="M18.7273 27.4783C18.4073 27.4783 18.1033 27.3503 17.8793 27.1263L13.3512 22.5983C12.8872 22.1343 12.8872 21.3663 13.3512 20.9023C13.8152 20.4383 14.5832 20.4383 15.0472 20.9023L18.7273 24.5823L26.9513 16.3583C27.4153 15.8943 28.1833 15.8943 28.6473 16.3583C29.1113 16.8223 29.1113 17.5903 28.6473 18.0543L19.5753 27.1263C19.3513 27.3503 19.0473 27.4783 18.7273 27.4783Z" fill="white"/>
</svg>
