<svg width="48" height="48" viewBox="0 0 48 48" fill="none" xmlns="http://www.w3.org/2000/svg">
<rect width="48" height="48" rx="24" fill="#02277D"/>
<path opacity="0.8" fill-rule="evenodd" clip-rule="evenodd" d="M14.9436 22.7836C20.5808 20.314 24.3397 18.6858 26.2206 17.8992C31.5907 15.6532 32.7065 15.263 33.4338 15.2501C33.5938 15.2473 33.9514 15.2872 34.1831 15.4762C34.3787 15.6358 34.4326 15.8514 34.4583 16.0028C34.4841 16.1541 34.5162 16.4989 34.4907 16.7682C34.1997 19.8429 32.9405 27.3042 32.2999 30.7478C32.0288 32.2049 31.4951 32.6935 30.9784 32.7413C29.8554 32.8452 29.0027 31.9951 27.9151 31.2782C26.2132 30.1564 25.2517 29.458 23.5997 28.3633C21.6906 27.0982 22.9282 26.4029 24.0162 25.2666C24.301 24.9692 29.2486 20.4439 29.3444 20.0333C29.3564 19.982 29.3675 19.7906 29.2544 19.6896C29.1414 19.5885 28.9745 19.6231 28.8541 19.6506C28.6834 19.6895 25.9646 21.4965 20.6976 25.0716C19.9259 25.6045 19.2269 25.8641 18.6006 25.8505C17.9102 25.8355 16.582 25.458 15.5947 25.1353C14.3837 24.7394 13.4213 24.5302 13.5051 23.8579C13.5487 23.5078 14.0283 23.1497 14.9436 22.7836Z" fill="white"/>
</svg>
