<svg width="48" height="48" viewBox="0 0 48 48" fill="none" xmlns="http://www.w3.org/2000/svg">
<rect width="48" height="48" rx="24" fill="#02277D"/>
<path opacity="0.8" fill-rule="evenodd" clip-rule="evenodd" d="M28.5437 25.9682C28.297 25.8453 27.0839 25.2512 26.8577 25.1692C26.6315 25.0873 26.467 25.0463 26.3025 25.2922C26.138 25.538 25.6652 26.0911 25.5212 26.255C25.3773 26.4189 25.2334 26.4394 24.9866 26.3165C24.7399 26.1936 23.9448 25.9342 23.0024 25.0976C22.2688 24.4465 21.7736 23.6423 21.6297 23.3964C21.4858 23.1506 21.6144 23.0177 21.7379 22.8953C21.8489 22.7853 21.9846 22.6085 22.108 22.4651C22.2314 22.3217 22.2725 22.2192 22.3547 22.0554C22.437 21.8915 22.3959 21.7481 22.3342 21.6252C22.2725 21.5022 21.779 20.2935 21.5734 19.8019C21.3732 19.323 21.1697 19.3878 21.0182 19.3803C20.8745 19.3732 20.7098 19.3717 20.5453 19.3717C20.3808 19.3717 20.1135 19.4332 19.8873 19.6789C19.6612 19.9248 19.0237 20.5189 19.0237 21.7276C19.0237 22.9363 19.9079 24.104 20.0313 24.2679C20.1547 24.4318 21.7712 26.9122 24.2464 27.9758C24.8351 28.2288 25.2948 28.3799 25.6531 28.4931C26.2442 28.68 26.7821 28.6537 27.2072 28.5904C27.6813 28.5199 28.6671 27.9963 28.8727 27.4227C29.0783 26.8491 29.0783 26.3574 29.0167 26.255C28.955 26.1526 28.7905 26.0911 28.5437 25.9682ZM24.0416 32.086H24.0383C22.5655 32.0855 21.1209 31.6917 19.8608 30.9475L19.561 30.7704L16.4545 31.5814L17.2837 28.5671L17.0885 28.2581C16.2669 26.9575 15.833 25.4543 15.8336 23.9108C15.8354 19.407 19.5175 15.7428 24.0449 15.7428C26.2372 15.7437 28.298 16.5945 29.8477 18.1384C31.3974 19.6824 32.2503 21.7348 32.2495 23.9174C32.2476 28.4216 28.5656 32.086 24.0416 32.086ZM31.0272 16.9652C29.1627 15.1076 26.6832 14.084 24.0415 14.083C18.5985 14.083 14.1685 18.4915 14.1663 23.9103C14.1656 25.6424 14.6203 27.3332 15.4845 28.8236L14.0835 33.9163L19.3185 32.5497C20.7609 33.3327 22.3848 33.7453 24.0376 33.746H24.0416C29.4842 33.746 33.9146 29.3369 33.9168 23.9181C33.9178 21.2921 32.8916 18.8229 31.0272 16.9652Z" fill="white"/>
</svg>
