<svg width="77" height="76" viewBox="0 0 77 76" fill="none" xmlns="http://www.w3.org/2000/svg">
<g filter="url(#filter0_dd_14381_358)">
<rect x="12.3335" width="52" height="52" rx="12" fill="white"/>
<rect x="12.5835" y="0.25" width="51.5" height="51.5" rx="11.75" stroke="#D0D5DD" stroke-width="0.5"/>
<path d="M28.0068 39.6695L45.1953 31.6999L32.9135 19.418L24.944 36.5989C24.8297 36.8732 24.3954 37.978 25.5763 39.0295C26.8563 40.1647 27.7325 39.7837 28.0068 39.6695Z" fill="url(#paint0_linear_14381_358)"/>
<path d="M31.1917 23.1279L29.9117 25.9089C29.5003 26.907 36.7994 34.2746 40.9212 33.6803L45.1955 31.6994C40.1288 34.0384 30.5669 24.4841 31.1917 23.1279Z" fill="url(#paint1_linear_14381_358)"/>
<path d="M28.6012 28.7354L28.3041 29.3678L27.2983 31.5315C27.2907 32.3848 31.6869 36.7733 34.4374 36.682L37.927 35.0667C34.1479 35.722 28.1669 29.6572 28.6012 28.7354Z" fill="url(#paint2_linear_14381_358)"/>
<path d="M25.0278 36.4313C25.3936 37.1627 27.184 38.9455 28.6697 39.3646L32.3574 37.6579L32.3802 37.6427C30.1097 38.6865 26.2697 34.8161 26.2012 33.917L25.0278 36.4313Z" fill="url(#paint3_linear_14381_358)"/>
<path opacity="0.75" d="M28.0068 39.6695L45.1953 31.6999L32.9135 19.418L24.944 36.5989C24.8297 36.8732 24.3954 37.978 25.5763 39.0295C26.8563 40.1647 27.7325 39.7837 28.0068 39.6695Z" fill="url(#paint4_radial_14381_358)"/>
<path opacity="0.75" d="M28.0068 39.6695L45.1953 31.6999L32.9135 19.418L24.944 36.5989C24.8297 36.8732 24.3954 37.978 25.5763 39.0295C26.8563 40.1647 27.7325 39.7837 28.0068 39.6695Z" fill="url(#paint5_radial_14381_358)"/>
<path d="M38.788 19.4783C38.5823 19.8974 38.1784 19.9583 37.8813 19.8669L38.3689 18.8993C38.3689 18.8993 38.9175 19.0212 38.9328 18.6631L38.9556 19.1659L38.788 19.4783Z" fill="url(#paint6_linear_14381_358)"/>
<path d="M40.1518 14.1452C40.1518 14.1452 40.5022 13.9852 40.7232 13.5281C40.9442 13.0709 39.8546 12.21 39.8546 12.21L39.3442 13.1014C39.3442 13.1014 40.2052 13.6652 39.9385 13.8557C39.6642 14.0461 40.1518 14.1452 40.1518 14.1452Z" fill="url(#paint7_linear_14381_358)"/>
<path d="M49.0658 21.4749C49.2258 20.073 48.281 19.6082 47.9382 19.6463C47.9382 19.6463 47.8772 19.1892 48.4868 19.0444C48.8905 18.953 49.9192 19.8673 49.6525 20.9034L49.0658 21.4749Z" fill="url(#paint8_linear_14381_358)"/>
<path d="M45.3401 31.593C44.4868 32.4463 41.0429 30.3739 37.6372 26.9759C34.2391 23.5778 32.1667 20.1263 33.0201 19.273C33.8734 18.4197 37.3172 20.4921 40.7229 23.8902C44.1211 27.2959 46.1857 30.7397 45.3401 31.593Z" fill="url(#paint9_linear_14381_358)"/>
<path d="M45.0505 31.0289C44.4029 31.6765 41.3096 29.6346 38.1477 26.4651C34.9858 23.2955 32.9363 20.2098 33.5839 19.5622C34.2315 18.9146 37.3248 20.9565 40.4868 24.1261C43.6486 27.2955 45.6981 30.3813 45.0505 31.0289Z" fill="url(#paint10_linear_14381_358)"/>
<path d="M40.7155 13.5283C40.7155 13.5283 40.3193 14.374 40.266 14.4655C40.0679 14.8007 39.5116 14.915 38.5136 14.7778C37.5155 14.6407 37.226 14.694 37.1803 14.7017C37.1345 14.7169 36.5479 14.2445 36.5479 14.2445L36.6012 13.7645C36.6012 13.7645 36.7383 13.5817 37.1955 13.6426C38.0107 13.7645 40.4107 14.1683 40.7155 13.5283Z" fill="url(#paint11_linear_14381_358)"/>
<path d="M42.6962 27.6761C43.4962 26.7619 44.2429 27.4781 44.7151 26.8228L43.9075 26C43.4351 26.6476 42.7495 26.0381 41.9038 26.9295L42.6962 27.6761Z" fill="url(#paint12_linear_14381_358)"/>
<path d="M34.0181 16.5834C35.1228 17.2386 34.14 18.1377 34.7647 18.6482L35.6257 17.8786C35.0009 17.3682 35.9 16.4843 34.7952 15.8291L34.0181 16.5834Z" fill="url(#paint13_linear_14381_358)"/>
<path d="M45.7138 19.9735C45.7443 19.9659 45.7595 19.783 46.209 19.463C46.6586 19.143 47.6719 19.6383 47.8014 19.7145C47.9386 19.7907 47.8243 21.0478 47.8243 21.0478C47.8243 21.0478 46.5595 19.6992 45.9271 20.0116C45.2947 20.3164 45.7138 19.9735 45.7138 19.9735Z" fill="url(#paint14_linear_14381_358)"/>
<path d="M45.8809 23.1055C45.8809 23.1055 45.8352 23.6008 45.6067 23.8293C45.1952 24.2332 44.54 23.6236 43.7095 23.8445C43.7095 23.8445 44.0904 22.877 44.1285 22.8008C44.1285 22.8008 44.4637 22.595 44.8067 22.7931C45.1571 22.9836 45.4619 23.0446 45.6752 22.9303C45.8885 22.816 45.8809 23.1055 45.8809 23.1055Z" fill="url(#paint15_linear_14381_358)"/>
<path d="M48.1132 20.9262C48.1132 20.9262 47.2979 21.2995 47.1912 21.3529C47.0845 21.4062 46.8408 19.509 47.4275 19.3186C48.0217 19.1281 48.4256 19.0595 48.4865 19.0519C48.5475 19.0367 47.4656 19.151 48.1132 20.9262Z" fill="#FFBF00"/>
<path d="M45.6066 23.8208C45.942 23.4703 46.399 22.9522 46.3762 22.8075C46.2696 21.8779 45.5153 19.8284 46.2086 19.4551C46.2086 19.4551 45.5609 19.9122 45.3629 20.0494C45.1648 20.1865 45.02 20.5522 45.0353 21.1541C45.0733 22.2056 45.9114 23.5084 45.6066 23.8208Z" fill="#FFBF00"/>
<path d="M43.2907 16.3008C42.7346 20.2093 38.8564 23.9427 38.8564 23.9427L39.3822 24.7427C39.3822 24.7427 43.6031 20.3465 44.144 16.4227L43.2907 16.3008Z" fill="url(#paint16_linear_14381_358)"/>
<path d="M36.1361 14.6705C36.0447 14.8382 36.3113 15.1201 36.9513 15.8972C37.5913 16.6743 39.2524 18.7315 38.78 19.4781L39.2904 18.4267C39.2904 18.4267 39.298 17.5886 38.7952 16.7734C38.0028 15.4934 36.4867 14.1144 36.6009 13.7715L36.1361 14.6705Z" fill="url(#paint17_linear_14381_358)"/>
<path d="M39.5346 26.5643C39.7071 26.5643 39.847 26.4244 39.847 26.2519C39.847 26.0793 39.7071 25.9395 39.5346 25.9395C39.362 25.9395 39.2222 26.0793 39.2222 26.2519C39.2222 26.4244 39.362 26.5643 39.5346 26.5643Z" fill="url(#paint18_linear_14381_358)"/>
<path d="M43.8852 13.5818C44.0577 13.5818 44.1976 13.4419 44.1976 13.2694C44.1976 13.0969 44.0577 12.957 43.8852 12.957C43.7126 12.957 43.5728 13.0969 43.5728 13.2694C43.5728 13.4419 43.7126 13.5818 43.8852 13.5818Z" fill="url(#paint19_linear_14381_358)"/>
<path d="M40.9516 18.115C41.1241 18.115 41.264 17.9751 41.264 17.8026C41.264 17.6301 41.1241 17.4902 40.9516 17.4902C40.779 17.4902 40.6392 17.6301 40.6392 17.8026C40.6392 17.9751 40.779 18.115 40.9516 18.115Z" fill="url(#paint20_linear_14381_358)"/>
<path d="M42.8031 23.8367C42.9757 23.8367 43.1155 23.6969 43.1155 23.5243C43.1155 23.3518 42.9757 23.2119 42.8031 23.2119C42.6306 23.2119 42.4907 23.3518 42.4907 23.5243C42.4907 23.6969 42.6306 23.8367 42.8031 23.8367Z" fill="url(#paint21_linear_14381_358)"/>
<path d="M50.8334 23.075C51.0058 23.075 51.1457 22.9351 51.1457 22.7626C51.1457 22.5901 51.0058 22.4502 50.8334 22.4502C50.6609 22.4502 50.521 22.5901 50.521 22.7626C50.521 22.9351 50.6609 23.075 50.8334 23.075Z" fill="url(#paint22_linear_14381_358)"/>
<path d="M48.8451 29.6658C49.0176 29.6658 49.1575 29.5259 49.1575 29.3534C49.1575 29.1809 49.0176 29.041 48.8451 29.041C48.6726 29.041 48.5327 29.1809 48.5327 29.3534C48.5327 29.5259 48.6726 29.6658 48.8451 29.6658Z" fill="url(#paint23_linear_14381_358)"/>
<path d="M47.5422 25.6424C47.7148 25.6424 47.8546 25.5025 47.8546 25.33C47.8546 25.1574 47.7148 25.0176 47.5422 25.0176C47.3698 25.0176 47.23 25.1574 47.23 25.33C47.23 25.5025 47.3698 25.6424 47.5422 25.6424Z" fill="url(#paint24_linear_14381_358)"/>
<path d="M49.2562 17.155C49.4288 17.155 49.5686 17.0152 49.5686 16.8426C49.5686 16.6701 49.4288 16.5303 49.2562 16.5303C49.0837 16.5303 48.9438 16.6701 48.9438 16.8426C48.9438 17.0152 49.0837 17.155 49.2562 17.155Z" fill="url(#paint25_linear_14381_358)"/>
<path d="M45.7514 18.1755C45.9239 18.1755 46.0638 18.0357 46.0638 17.8632C46.0638 17.6906 45.9239 17.5508 45.7514 17.5508C45.5788 17.5508 45.439 17.6906 45.439 17.8632C45.439 18.0357 45.5788 18.1755 45.7514 18.1755Z" fill="url(#paint26_linear_14381_358)"/>
<path d="M43.0773 30.5183C46.262 27.905 51.6562 27.364 51.6562 27.364L51.8316 26.1602C51.8316 26.1602 45.4468 26.922 42.064 29.8554C42.4296 30.1068 42.7649 30.3278 43.0773 30.5183Z" fill="url(#paint27_linear_14381_358)"/>
<path d="M35.085 22.9904C35.2983 23.2799 35.5345 23.5695 35.7859 23.8743C36.464 22.3809 36.3192 21.2075 36.3192 21.2075L35.4888 20.6895C35.5726 21.6114 35.2907 22.4952 35.085 22.9904Z" fill="url(#paint28_linear_14381_358)"/>
</g>
<defs>
<filter id="filter0_dd_14381_358" x="0.333496" y="0" width="76" height="76" filterUnits="userSpaceOnUse" color-interpolation-filters="sRGB">
<feFlood flood-opacity="0" result="BackgroundImageFix"/>
<feColorMatrix in="SourceAlpha" type="matrix" values="0 0 0 0 0 0 0 0 0 0 0 0 0 0 0 0 0 0 127 0" result="hardAlpha"/>
<feMorphology radius="2" operator="erode" in="SourceAlpha" result="effect1_dropShadow_14381_358"/>
<feOffset dy="4"/>
<feGaussianBlur stdDeviation="3"/>
<feColorMatrix type="matrix" values="0 0 0 0 0.0627451 0 0 0 0 0.0941176 0 0 0 0 0.156863 0 0 0 0.03 0"/>
<feBlend mode="normal" in2="BackgroundImageFix" result="effect1_dropShadow_14381_358"/>
<feColorMatrix in="SourceAlpha" type="matrix" values="0 0 0 0 0 0 0 0 0 0 0 0 0 0 0 0 0 0 127 0" result="hardAlpha"/>
<feMorphology radius="4" operator="erode" in="SourceAlpha" result="effect2_dropShadow_14381_358"/>
<feOffset dy="12"/>
<feGaussianBlur stdDeviation="8"/>
<feColorMatrix type="matrix" values="0 0 0 0 0.0627451 0 0 0 0 0.0941176 0 0 0 0 0.156863 0 0 0 0.08 0"/>
<feBlend mode="normal" in2="effect1_dropShadow_14381_358" result="effect2_dropShadow_14381_358"/>
<feBlend mode="normal" in="SourceGraphic" in2="effect2_dropShadow_14381_358" result="shape"/>
</filter>
<linearGradient id="paint0_linear_14381_358" x1="23.9353" y1="21.8182" x2="37.5335" y2="37.9328" gradientUnits="userSpaceOnUse">
<stop offset="0.2544" stop-color="#FBE07A"/>
<stop offset="1" stop-color="#FF40BF"/>
</linearGradient>
<linearGradient id="paint1_linear_14381_358" x1="31.3256" y1="22.997" x2="42.6102" y2="34.2817" gradientUnits="userSpaceOnUse">
<stop offset="0.2544" stop-color="#9F00E8"/>
<stop offset="1" stop-color="#7000A3"/>
</linearGradient>
<linearGradient id="paint2_linear_14381_358" x1="28.1977" y1="29.1403" x2="36.024" y2="36.9665" gradientUnits="userSpaceOnUse">
<stop offset="0.2544" stop-color="#9F00E8"/>
<stop offset="1" stop-color="#7000A3"/>
</linearGradient>
<linearGradient id="paint3_linear_14381_358" x1="25.8319" y1="34.2758" x2="30.7848" y2="39.2287" gradientUnits="userSpaceOnUse">
<stop offset="0.2544" stop-color="#9F00E8"/>
<stop offset="1" stop-color="#7000A3"/>
</linearGradient>
<radialGradient id="paint4_radial_14381_358" cx="0" cy="0" r="1" gradientUnits="userSpaceOnUse" gradientTransform="translate(31.3036 27.2103) rotate(119.598) scale(7.8064 2.38992)">
<stop stop-color="white" stop-opacity="0.5"/>
<stop offset="1" stop-color="white" stop-opacity="0"/>
</radialGradient>
<radialGradient id="paint5_radial_14381_358" cx="0" cy="0" r="1" gradientUnits="userSpaceOnUse" gradientTransform="translate(36.7893 34.2081) rotate(151.7) scale(12.3746 3.85951)">
<stop stop-color="#440063" stop-opacity="0.75"/>
<stop offset="1" stop-color="#420061" stop-opacity="0"/>
</radialGradient>
<linearGradient id="paint6_linear_14381_358" x1="38.8457" y1="19.1937" x2="40.7159" y2="18.5965" gradientUnits="userSpaceOnUse">
<stop stop-color="#BD2719"/>
<stop offset="1" stop-color="#FF4E0D"/>
</linearGradient>
<linearGradient id="paint7_linear_14381_358" x1="40.5845" y1="14.5536" x2="39.7472" y2="12.4733" gradientUnits="userSpaceOnUse">
<stop stop-color="#BD2719"/>
<stop offset="1" stop-color="#FF4E0D"/>
</linearGradient>
<linearGradient id="paint8_linear_14381_358" x1="49.8973" y1="20.9072" x2="46.7785" y2="18.9088" gradientUnits="userSpaceOnUse">
<stop stop-color="#FFCB4B"/>
<stop offset="1" stop-color="#E81CA2"/>
</linearGradient>
<linearGradient id="paint9_linear_14381_358" x1="41.9064" y1="16.8315" x2="34.938" y2="38.8015" gradientUnits="userSpaceOnUse">
<stop offset="0.2544" stop-color="#FBE07A"/>
<stop offset="1" stop-color="#E81CA2"/>
</linearGradient>
<linearGradient id="paint10_linear_14381_358" x1="44.1942" y1="21.8744" x2="33.4996" y2="29.3753" gradientUnits="userSpaceOnUse">
<stop stop-color="#FBE07A"/>
<stop offset="1" stop-color="white"/>
</linearGradient>
<linearGradient id="paint11_linear_14381_358" x1="35.5859" y1="14.2513" x2="39.04" y2="14.199" gradientUnits="userSpaceOnUse">
<stop stop-color="#BD2719"/>
<stop offset="1" stop-color="#FF4E0D"/>
</linearGradient>
<linearGradient id="paint12_linear_14381_358" x1="43.7165" y1="26.162" x2="42.8858" y2="27.6524" gradientUnits="userSpaceOnUse">
<stop stop-color="#FF9214"/>
<stop offset="1" stop-color="#FF4E0D"/>
</linearGradient>
<linearGradient id="paint13_linear_14381_358" x1="34.0131" y1="14.7062" x2="35.2691" y2="18.2998" gradientUnits="userSpaceOnUse">
<stop stop-color="#80DAFE"/>
<stop offset="1" stop-color="#008EE6"/>
</linearGradient>
<linearGradient id="paint14_linear_14381_358" x1="46.849" y1="21.689" x2="46.5614" y2="18.0639" gradientUnits="userSpaceOnUse">
<stop stop-color="#FFCB4B"/>
<stop offset="1" stop-color="#E81CA2"/>
</linearGradient>
<linearGradient id="paint15_linear_14381_358" x1="43.804" y1="23.2174" x2="45.8069" y2="23.5418" gradientUnits="userSpaceOnUse">
<stop stop-color="#FFCB4B"/>
<stop offset="1" stop-color="#E81CA2"/>
</linearGradient>
<linearGradient id="paint16_linear_14381_358" x1="42.4278" y1="16.4414" x2="39.4564" y2="28.6693" gradientUnits="userSpaceOnUse">
<stop offset="0.2544" stop-color="#E100FF"/>
<stop offset="1" stop-color="#7000A3"/>
</linearGradient>
<linearGradient id="paint17_linear_14381_358" x1="36.5835" y1="14.438" x2="38.7815" y2="18.1014" gradientUnits="userSpaceOnUse">
<stop stop-color="#FF9214"/>
<stop offset="1" stop-color="#FF4E0D"/>
</linearGradient>
<linearGradient id="paint18_linear_14381_358" x1="38.9371" y1="24.4936" x2="40.1232" y2="27.9825" gradientUnits="userSpaceOnUse">
<stop stop-color="#FFCB4B"/>
<stop offset="1" stop-color="#E81CA2"/>
</linearGradient>
<linearGradient id="paint19_linear_14381_358" x1="42.9322" y1="11.7071" x2="44.886" y2="14.9169" gradientUnits="userSpaceOnUse">
<stop stop-color="#FBE07A"/>
<stop offset="1" stop-color="#E81CA2"/>
</linearGradient>
<linearGradient id="paint20_linear_14381_358" x1="40.905" y1="17.6297" x2="41.3934" y2="19.4789" gradientUnits="userSpaceOnUse">
<stop stop-color="#80DAFE"/>
<stop offset="1" stop-color="#008EE6"/>
</linearGradient>
<linearGradient id="paint21_linear_14381_358" x1="42.5926" y1="22.9311" x2="42.8907" y2="23.7841" gradientUnits="userSpaceOnUse">
<stop stop-color="#80DAFE"/>
<stop offset="1" stop-color="#008EE6"/>
</linearGradient>
<linearGradient id="paint22_linear_14381_358" x1="51.0599" y1="22.0333" x2="50.5017" y2="23.8127" gradientUnits="userSpaceOnUse">
<stop stop-color="#FFCB4B"/>
<stop offset="1" stop-color="#E81CA2"/>
</linearGradient>
<linearGradient id="paint23_linear_14381_358" x1="48.7531" y1="27.3574" x2="48.9275" y2="31.1604" gradientUnits="userSpaceOnUse">
<stop stop-color="#FFCB4B"/>
<stop offset="1" stop-color="#E81CA2"/>
</linearGradient>
<linearGradient id="paint24_linear_14381_358" x1="47.3377" y1="24.7396" x2="47.6357" y2="25.5925" gradientUnits="userSpaceOnUse">
<stop offset="0.2544" stop-color="#9F00E8"/>
<stop offset="1" stop-color="#7000A3"/>
</linearGradient>
<linearGradient id="paint25_linear_14381_358" x1="49.8626" y1="15.8017" x2="48.7113" y2="17.7904" gradientUnits="userSpaceOnUse">
<stop stop-color="#80DAFE"/>
<stop offset="1" stop-color="#008EE6"/>
</linearGradient>
<linearGradient id="paint26_linear_14381_358" x1="45.6708" y1="17.4199" x2="46.0546" y2="19.5482" gradientUnits="userSpaceOnUse">
<stop stop-color="#FF9214"/>
<stop offset="1" stop-color="#FF4E0D"/>
</linearGradient>
<linearGradient id="paint27_linear_14381_358" x1="39.9048" y1="28.1814" x2="51.0285" y2="28.4099" gradientUnits="userSpaceOnUse">
<stop stop-color="#80DAFE"/>
<stop offset="1" stop-color="#008EE6"/>
</linearGradient>
<linearGradient id="paint28_linear_14381_358" x1="33.7597" y1="26.9439" x2="36.4264" y2="20.3153" gradientUnits="userSpaceOnUse">
<stop stop-color="#FBE07A"/>
<stop offset="1" stop-color="#E81CA2"/>
</linearGradient>
</defs>
</svg>
