 <svg width="68" height="68" viewBox="0 0 68 68" fill="none" xmlns="http://www.w3.org/2000/svg">
<g filter="url(#filter0_dd_14381_219)">
<rect x="12" width="44" height="44" rx="12" fill="white"/>
<rect x="12.25" y="0.25" width="43.5" height="43.5" rx="11.75" stroke="#D0D5DD" stroke-width="0.5"/>
<g clip-path="url(#clip0_14381_219)">
<path d="M36.35 19.4L35.45 20.85L36.15 21.55L37.6 20.65L38.1 20.85L38.5 22.5H39.5L39.9 20.85L40.4 20.65L41.85 21.55L42.55 20.85L41.65 19.4C41.7378 19.2426 41.8051 19.0746 41.85 18.9L43.5 18.5V17.5L41.85 17.1C41.8051 16.9254 41.7378 16.7574 41.65 16.6L42.55 15.15L41.85 14.45L40.4 15.35L39.9 15.15L39.5 13.5H38.5L38.1 15.15L37.6 15.35L36.15 14.45L35.45 15.15L36.35 16.6C36.2622 16.7574 36.1949 16.9254 36.15 17.1L34.5 17.5V18.5L36.15 18.9C36.1949 19.0746 36.2622 19.2426 36.35 19.4ZM39 17C39.1978 17 39.3911 17.0586 39.5556 17.1685C39.72 17.2784 39.8482 17.4346 39.9239 17.6173C39.9996 17.8 40.0194 18.0011 39.9808 18.1951C39.9422 18.3891 39.847 18.5673 39.7071 18.7071C39.5673 18.847 39.3891 18.9422 39.1951 18.9808C39.0011 19.0194 38.8 18.9996 38.6173 18.9239C38.4346 18.8482 38.2784 18.72 38.1685 18.5556C38.0586 18.3911 38 18.1978 38 18C38 17.7348 38.1054 17.4804 38.2929 17.2929C38.4804 17.1054 38.7348 17 39 17Z" fill="#487FFC"/>
<path d="M43.1 24.35C42.8222 24.126 42.5013 23.9615 42.1572 23.8669C41.8131 23.7723 41.4533 23.7495 41.1 23.8L36.15 24.7C36.1526 24.3917 36.0918 24.0861 35.9714 23.8023C35.851 23.5185 35.6735 23.2624 35.45 23.05L31.9 19.5H24.5C24.2348 19.5 23.9804 19.6054 23.7929 19.7929C23.6054 19.9804 23.5 20.2348 23.5 20.5V25C23.5 25.2652 23.6054 25.5196 23.7929 25.7071C23.9804 25.8946 24.2348 26 24.5 26H26.15L31.75 30.55L41.95 28.7C42.4108 28.61 42.837 28.3921 43.1797 28.0711C43.5225 27.7502 43.7679 27.3392 43.8879 26.8853C44.0079 26.4314 43.9976 25.9528 43.8583 25.5044C43.719 25.056 43.4562 24.656 43.1 24.35ZM41.6 26.75L32.25 28.45L27 24.1V21.5H31.1L34.05 24.45C34.0894 24.4894 34.1206 24.5362 34.142 24.5876C34.1633 24.6391 34.1743 24.6943 34.1743 24.75C34.1743 24.8057 34.1633 24.8609 34.142 24.9124C34.1206 24.9638 34.0894 25.0106 34.05 25.05C34.0106 25.0894 33.9638 25.1206 33.9124 25.142C33.8609 25.1633 33.8057 25.1743 33.75 25.1743C33.6943 25.1743 33.6391 25.1633 33.5876 25.142C33.5362 25.1206 33.4894 25.0894 33.45 25.05L31.7 23.3C31.5074 23.1556 31.2692 23.0855 31.0291 23.1025C30.789 23.1196 30.5631 23.2227 30.3929 23.3929C30.2227 23.5631 30.1196 23.789 30.1025 24.0291C30.0855 24.2692 30.1556 24.5074 30.3 24.7L32.05 26.45C32.2681 26.6798 32.5323 26.8609 32.8252 26.9816C33.1182 27.1022 33.4333 27.1596 33.75 27.15C34.0561 27.1487 34.36 27.098 34.65 27L41.45 25.8C41.5913 25.7802 41.7347 25.8161 41.85 25.9C41.8991 25.9438 41.9379 25.9979 41.9638 26.0584C41.9898 26.1188 42.0021 26.1842 42 26.25C42.0024 26.367 41.9636 26.4811 41.8905 26.5724C41.8174 26.6638 41.7146 26.7266 41.6 26.75Z" fill="#487FFC"/>
</g>
</g>
<defs>
<filter id="filter0_dd_14381_219" x="0" y="0" width="68" height="68" filterUnits="userSpaceOnUse" color-interpolation-filters="sRGB">
<feFlood flood-opacity="0" result="BackgroundImageFix"/>
<feColorMatrix in="SourceAlpha" type="matrix" values="0 0 0 0 0 0 0 0 0 0 0 0 0 0 0 0 0 0 127 0" result="hardAlpha"/>
<feMorphology radius="2" operator="erode" in="SourceAlpha" result="effect1_dropShadow_14381_219"/>
<feOffset dy="4"/>
<feGaussianBlur stdDeviation="3"/>
<feColorMatrix type="matrix" values="0 0 0 0 0.0627451 0 0 0 0 0.0941176 0 0 0 0 0.156863 0 0 0 0.03 0"/>
<feBlend mode="normal" in2="BackgroundImageFix" result="effect1_dropShadow_14381_219"/>
<feColorMatrix in="SourceAlpha" type="matrix" values="0 0 0 0 0 0 0 0 0 0 0 0 0 0 0 0 0 0 127 0" result="hardAlpha"/>
<feMorphology radius="4" operator="erode" in="SourceAlpha" result="effect2_dropShadow_14381_219"/>
<feOffset dy="12"/>
<feGaussianBlur stdDeviation="8"/>
<feColorMatrix type="matrix" values="0 0 0 0 0.0627451 0 0 0 0 0.0941176 0 0 0 0 0.156863 0 0 0 0.08 0"/>
<feBlend mode="normal" in2="effect1_dropShadow_14381_219" result="effect2_dropShadow_14381_219"/>
<feBlend mode="normal" in="SourceGraphic" in2="effect2_dropShadow_14381_219" result="shape"/>
</filter>
<clipPath id="clip0_14381_219">
<rect width="24" height="24" fill="white" transform="translate(22 10)"/>
</clipPath>
</defs>
</svg>
